<svg width="31" height="30" viewBox="0 0 31 30" fill="none" xmlns="http://www.w3.org/2000/svg">
<path d="M13.3865 0.908099C14.7419 0.363967 16.2581 0.363967 17.6135 0.908099L28.8605 5.42321C29.345 5.61751 29.7598 5.95059 30.0519 6.37978C30.344 6.80896 30.5 7.31472 30.5 7.83226V22.1692C30.4997 22.6865 30.3435 23.1919 30.0515 23.6208C29.7594 24.0497 29.3447 24.3826 28.8605 24.5768L17.6135 29.0919C16.2581 29.636 14.7419 29.636 13.3865 29.0919L2.1395 24.5768C1.65505 24.3825 1.24021 24.0494 0.948122 23.6202C0.656034 23.191 0.499997 22.6853 0.5 22.1677V7.83375C0.499997 7.31621 0.656034 6.81045 0.948122 6.38126C1.24021 5.95207 1.65505 5.61899 2.1395 5.4247L13.3865 0.908099ZM16.7675 2.97257C15.9546 2.64642 15.0454 2.64642 14.2325 2.97257L11.36 4.1266L22.6505 8.47388L26.654 6.94409L16.7675 2.97257ZM19.5365 9.66355L8.3225 5.34449L4.385 6.92478L15.5015 11.2052L19.5365 9.66355ZM2.75 22.1692C2.7502 22.243 2.77255 22.315 2.81423 22.3761C2.8559 22.4372 2.915 22.4846 2.984 22.5123L14.2325 27.0274C14.2795 27.0472 14.327 27.0651 14.375 27.0809V13.1628L2.75 8.68627V22.1692ZM16.7675 27.0274L28.016 22.5123C28.0852 22.4845 28.1445 22.4368 28.1862 22.3754C28.2279 22.314 28.2501 22.2417 28.25 22.1677V8.72192L16.625 13.1657V27.0824L16.7675 27.0274Z" fill="black"/>
</svg>
