<svg width="31" height="34" viewBox="0 0 31 34" fill="none" xmlns="http://www.w3.org/2000/svg">
<path d="M27.5 15.665V6.5C27.5 5.70435 27.1839 4.94129 26.6213 4.37868C26.0587 3.81607 25.2956 3.5 24.5 3.5H18.23C17.6 1.76 15.95 0.5 14 0.5C12.05 0.5 10.4 1.76 9.77 3.5H3.5C1.85 3.5 0.5 4.85 0.5 6.5V27.5C0.5 28.2956 0.81607 29.0587 1.37868 29.6213C1.94129 30.1839 2.70435 30.5 3.5 30.5H12.665C14.555 32.36 17.135 33.5 20 33.5C25.805 33.5 30.5 28.805 30.5 23C30.5 20.135 29.36 17.555 27.5 15.665ZM14 3.5C14.825 3.5 15.5 4.175 15.5 5C15.5 5.825 14.825 6.5 14 6.5C13.175 6.5 12.5 5.825 12.5 5C12.5 4.175 13.175 3.5 14 3.5ZM3.5 27.5V6.5H6.5V9.5H21.5V6.5H24.5V13.52C22.5434 12.5904 20.3471 12.2891 18.2125 12.6576C16.0779 13.0261 14.1096 14.0462 12.5779 15.5779C11.0462 17.1096 10.0261 19.0779 9.6576 21.2125C9.28915 23.3471 9.5904 25.5434 10.52 27.5H3.5ZM20 30.5C15.86 30.5 12.5 27.14 12.5 23C12.5 18.86 15.86 15.5 20 15.5C24.14 15.5 27.5 18.86 27.5 23C27.5 27.14 24.14 30.5 20 30.5ZM20.75 23.375L25.04 25.91L23.915 27.74L18.5 24.5V17H20.75V23.375Z" fill="black" fill-opacity="0.9"/>
</svg>
